<svg aria-hidden="true" style="position: absolute; width: 0; height: 0; overflow: hidden;" version="1.1" xmlns="http://www.w3.org/2000/svg" xmlns:xlink="http://www.w3.org/1999/xlink">
<defs>
<symbol id="icon-phone-call" viewBox="0 0 32 32">
<path  d="M27.312 4.685c-6.249-6.247-16.38-6.246-22.627 0.003s-6.246 16.38 0.003 22.627 16.38 6.246 22.627-0.003c3-3.001 4.685-7.072 4.685-11.315s-1.687-8.312-4.688-11.312zM24.231 22.288c-0.001 0.001-0.001 0.001-0.002 0.002v-0.005l-0.811 0.805c-1.048 1.062-2.575 1.498-4.027 1.152-1.462-0.391-2.852-1.014-4.117-1.845-1.175-0.751-2.265-1.629-3.248-2.619-0.905-0.898-1.718-1.884-2.427-2.944-0.775-1.14-1.389-2.382-1.824-3.691-0.498-1.537-0.085-3.224 1.067-4.357l0.949-0.949c0.264-0.265 0.693-0.266 0.958-0.002 0.001 0.001 0.001 0.001 0.002 0.002l2.997 2.997c0.265 0.264 0.266 0.693 0.002 0.958-0.001 0.001-0.001 0.001-0.002 0.002l-1.76 1.76c-0.505 0.499-0.569 1.293-0.149 1.867 0.637 0.874 1.341 1.696 2.107 2.459 0.854 0.857 1.782 1.637 2.773 2.331 0.573 0.4 1.35 0.332 1.845-0.16l1.701-1.728c0.264-0.265 0.693-0.266 0.958-0.002 0.001 0.001 0.001 0.001 0.002 0.002l3.003 3.008c0.265 0.264 0.266 0.693 0.002 0.958z"></path>
</symbol>
<symbol id="icon-mail4" viewBox="0 0 32 32">
<path  d="M16 0c-8.837 0-16 7.163-16 16s7.163 16 16 16 16-7.163 16-16-7.163-16-16-16zM8 8h16c0.286 0 0.563 0.061 0.817 0.177l-8.817 10.286-8.817-10.287c0.254-0.116 0.531-0.177 0.817-0.177zM6 22v-12c0-0.042 0.002-0.084 0.004-0.125l5.864 6.842-5.8 5.8c-0.045-0.167-0.069-0.34-0.069-0.517zM24 24h-16c-0.177 0-0.35-0.024-0.517-0.069l5.691-5.691 2.826 3.297 2.826-3.297 5.691 5.691c-0.167 0.045-0.34 0.069-0.517 0.069zM26 22c0 0.177-0.024 0.35-0.069 0.517l-5.8-5.8 5.865-6.842c0.003 0.041 0.004 0.083 0.004 0.125v12z"></path>
</symbol>
<symbol id="icon-github-logo" viewBox="0 0 32 32">
<path  d="M29.854 8.36c-1.431-2.451-3.371-4.392-5.823-5.823s-5.128-2.146-8.031-2.146c-2.903 0-5.58 0.715-8.031 2.146s-4.392 3.371-5.823 5.823c-1.431 2.451-2.146 5.128-2.146 8.031 0 3.486 1.017 6.621 3.052 9.406s4.663 4.712 7.885 5.781c0.375 0.070 0.653 0.021 0.833-0.146s0.271-0.375 0.271-0.625c0-0.042-0.004-0.416-0.011-1.125s-0.011-1.326-0.011-1.854l-0.479 0.083c-0.306 0.056-0.691 0.080-1.156 0.073s-0.948-0.055-1.448-0.146c-0.5-0.090-0.965-0.298-1.396-0.625s-0.736-0.754-0.916-1.281l-0.208-0.479c-0.139-0.319-0.357-0.674-0.656-1.062s-0.601-0.653-0.906-0.792l-0.146-0.104c-0.097-0.069-0.187-0.153-0.271-0.25s-0.146-0.194-0.187-0.292c-0.042-0.097-0.007-0.177 0.104-0.24s0.312-0.093 0.604-0.093l0.417 0.062c0.278 0.056 0.621 0.222 1.031 0.5s0.746 0.639 1.010 1.083c0.32 0.57 0.705 1.004 1.156 1.302s0.906 0.448 1.364 0.448 0.854-0.035 1.187-0.104c0.333-0.069 0.646-0.174 0.937-0.313 0.125-0.931 0.465-1.646 1.021-2.146-0.792-0.083-1.503-0.208-2.135-0.375s-1.285-0.438-1.958-0.813c-0.674-0.375-1.233-0.84-1.677-1.396s-0.809-1.285-1.094-2.188c-0.285-0.903-0.427-1.944-0.427-3.125 0-1.681 0.549-3.111 1.646-4.292-0.514-1.264-0.465-2.68 0.146-4.25 0.403-0.125 1-0.031 1.792 0.281s1.371 0.58 1.74 0.802c0.368 0.222 0.663 0.41 0.885 0.562 1.292-0.361 2.625-0.541 4-0.541s2.708 0.181 4 0.541l0.792-0.5c0.541-0.333 1.181-0.639 1.916-0.917s1.299-0.354 1.688-0.229c0.625 1.569 0.68 2.986 0.166 4.25 1.097 1.181 1.646 2.611 1.646 4.292 0 1.18-0.143 2.225-0.427 3.135s-0.652 1.639-1.104 2.188c-0.452 0.549-1.014 1.011-1.688 1.385s-1.327 0.646-1.958 0.813c-0.632 0.167-1.344 0.292-2.135 0.375 0.722 0.625 1.083 1.611 1.083 2.958v4.395c0 0.25 0.087 0.458 0.261 0.625s0.448 0.215 0.823 0.146c3.222-1.069 5.851-2.996 7.886-5.781s3.052-5.92 3.052-9.406c-0.001-2.902-0.716-5.579-2.146-8.030z"></path>
</symbol>
</defs>
</svg>
